<svg width="1920" height="625" fill="none" xmlns="http://www.w3.org/2000/svg"><g clip-path="url(#clip0)"><path d="M.45 433.571v196.441h203.999c0-52.099-21.49-102.065-59.75-138.905-38.26-36.84-90.15-57.536-144.25-57.536z" fill="#F8F7FC" fill-opacity=".39"/><path d="M1702.42 112.749c5.06 4.892 7.96 11.465 8.08 18.273a24.43 24.43 0 01-.85 6.841c-1.89 6.968-2.35 15.318 2.91 20.412 5.27 5.093 14 5.141 17.69-1.113a48.82 48.82 0 006.77-25.724c-.22-13.616-6.03-26.762-16.14-36.547-10.11-9.784-23.7-15.404-37.77-15.625-9.46-.149-18.62 2.153-26.58 6.556-6.46 3.574-6.42 12.022-1.15 17.116 5.26 5.093 13.89 4.646 21.09 2.819 2.28-.577 4.65-.859 7.07-.821a27.84 27.84 0 0118.88 7.813zM960.5 598.644c-7.095 0-13.898 2.701-18.915 7.511-5.017 4.809-7.835 11.332-7.835 18.133H907c0-13.603 5.64-26.648 15.67-36.266C932.703 578.404 946.311 573 960.5 573s27.797 5.404 37.83 15.022c10.03 9.618 15.67 22.663 15.67 36.266h-26.75c0-6.801-2.818-13.324-7.835-18.133-5.017-4.81-11.82-7.511-18.915-7.511z" fill="#E9E9E9"/><g opacity=".9"><g opacity=".9" filter="url(#filter0_d)"><path opacity=".9" d="M245.231 77.858l50.45-29.127a5.462 5.462 0 017.46 1.999l29.13 50.449a5.461 5.461 0 01-2 7.46l-50.45 29.127a5.46 5.46 0 01-7.46-1.999l-29.13-50.449a5.47 5.47 0 012-7.46z" fill="#171347"/></g><path opacity=".9" d="M245.231 77.858l50.45-29.127a5.462 5.462 0 017.46 1.999l29.13 50.449a5.461 5.461 0 01-2 7.46l-50.45 29.127a5.46 5.46 0 01-7.46-1.999l-29.13-50.449a5.47 5.47 0 012-7.46z" fill="url(#paint0_linear)"/></g><g opacity=".2"><g opacity=".2" filter="url(#filter1_d)"><path opacity=".2" d="M240.679 97.883l50.449-29.127a5.462 5.462 0 017.46 1.998l29.13 50.45a5.461 5.461 0 01-2 7.46l-50.45 29.127a5.46 5.46 0 01-7.459-1.999l-29.13-50.449a5.462 5.462 0 012-7.46z" fill="#171347"/></g><path opacity=".2" d="M240.679 97.883l50.449-29.127a5.462 5.462 0 017.46 1.998l29.13 50.45a5.461 5.461 0 01-2 7.46l-50.45 29.127a5.46 5.46 0 01-7.459-1.999l-29.13-50.449a5.462 5.462 0 012-7.46z" fill="url(#paint1_linear)"/></g></g><defs><linearGradient id="paint0_linear" x1="281.881" y1="68.316" x2="326.401" y2="110.871" gradientUnits="userSpaceOnUse"><stop stop-color="#624DE3"/><stop offset="1" stop-color="#1E64FA"/></linearGradient><linearGradient id="paint1_linear" x1="277.318" y1="88.341" x2="321.848" y2="130.896" gradientUnits="userSpaceOnUse"><stop stop-color="#624DE3"/><stop offset="1" stop-color="#1E64FA"/></linearGradient><filter id="filter0_d" x="242.502" y="47.998" width="105.502" height="104.501" filterUnits="userSpaceOnUse" color-interpolation-filters="sRGB"><feFlood flood-opacity="0" result="BackgroundImageFix"/><feColorMatrix in="SourceAlpha" values="0 0 0 0 0 0 0 0 0 0 0 0 0 0 0 0 0 0 127 0" result="hardAlpha"/><feOffset dx="8" dy="7"/><feGaussianBlur stdDeviation="3.5"/><feColorMatrix values="0 0 0 0 0.00784314 0 0 0 0 0 0 0 0 0 0.0470588 0 0 0 0.07 0"/><feBlend in2="BackgroundImageFix" result="effect1_dropShadow"/><feBlend in="SourceGraphic" in2="effect1_dropShadow" result="shape"/></filter><filter id="filter1_d" x="237.945" y="68.023" width="105.506" height="104.501" filterUnits="userSpaceOnUse" color-interpolation-filters="sRGB"><feFlood flood-opacity="0" result="BackgroundImageFix"/><feColorMatrix in="SourceAlpha" values="0 0 0 0 0 0 0 0 0 0 0 0 0 0 0 0 0 0 127 0" result="hardAlpha"/><feOffset dx="8" dy="7"/><feGaussianBlur stdDeviation="3.5"/><feColorMatrix values="0 0 0 0 0.00784314 0 0 0 0 0 0 0 0 0 0.0470588 0 0 0 0.07 0"/><feBlend in2="BackgroundImageFix" result="effect1_dropShadow"/><feBlend in="SourceGraphic" in2="effect1_dropShadow" result="shape"/></filter><clipPath id="clip0"><path fill="#fff" transform="matrix(-1 0 0 1 1920 0)" d="M0 0h1920v625H0z"/></clipPath></defs></svg>